<svg id="svg" viewBox="0 0 90 50.7" version="1.1" width="90" height="50.7" xmlns="http://www.w3.org/2000/svg"><path d="M29.473 17.250 C 28.650 18.651,28.671 18.641,27.210 18.313 C 24.035 17.602,20.815 19.285,19.304 22.446 C 19.279 22.498,18.986 22.372,18.654 22.164 C 17.886 21.684,17.271 22.134,16.759 23.551 C 16.453 24.398,16.322 24.494,15.869 24.211 C 15.471 23.962,15.149 23.979,14.589 24.279 C 14.177 24.500,13.621 24.596,13.353 24.493 C 12.157 24.034,9.071 26.392,9.370 27.536 C 9.462 27.887,9.305 28.240,8.964 28.453 C 8.122 28.979,7.944 28.870,8.550 28.200 C 8.849 27.870,9.013 27.600,8.914 27.600 C 8.443 27.600,4.500 32.810,4.500 33.433 C 4.500 34.196,3.792 34.954,3.340 34.675 C 3.182 34.577,2.637 35.065,2.127 35.758 C 1.136 37.105,0.944 38.409,1.542 39.721 C 1.925 40.563,3.451 41.400,4.600 41.400 C 5.100 41.400,5.426 41.608,5.553 42.009 C 5.704 42.486,5.355 42.991,3.947 44.334 C 2.326 45.880,2.112 46.228,1.790 47.850 C 1.594 48.840,1.308 49.886,1.156 50.175 C 0.895 50.669,1.381 50.700,9.444 50.700 L 18.010 50.700 17.236 49.172 C 16.496 47.713,16.486 47.626,17.006 47.245 C 17.606 46.804,17.500 46.748,19.717 48.680 C 20.415 49.288,21.308 49.866,21.702 49.965 C 23.532 50.424,27.163 48.438,30.460 45.173 C 31.537 44.107,32.672 43.154,32.982 43.056 C 34.037 42.721,34.521 41.551,34.369 39.708 C 34.292 38.773,34.098 37.878,33.938 37.718 C 33.778 37.558,33.710 37.262,33.787 37.062 C 33.864 36.861,33.719 36.524,33.465 36.313 C 33.086 35.998,32.867 36.018,32.243 36.427 C 31.825 36.701,31.360 36.849,31.209 36.756 C 31.059 36.663,30.455 37.009,29.868 37.524 C 29.048 38.245,28.800 38.693,28.800 39.455 C 28.800 40.328,28.627 40.545,27.375 41.246 C 25.576 42.253,23.276 42.591,23.006 41.887 C 22.884 41.571,23.069 41.238,23.533 40.934 C 23.926 40.676,24.955 39.387,25.820 38.069 C 26.717 36.703,27.552 35.732,27.760 35.813 C 27.962 35.890,28.298 35.795,28.507 35.602 C 28.797 35.335,28.841 35.334,28.691 35.601 C 28.429 36.068,29.305 36.918,29.838 36.713 C 30.069 36.624,30.395 36.158,30.563 35.676 C 30.852 34.847,31.152 34.664,32.029 34.779 C 32.237 34.806,32.490 34.586,32.590 34.289 C 32.690 33.993,33.040 33.173,33.367 32.467 C 33.784 31.566,33.893 30.941,33.731 30.367 C 33.335 28.962,33.355 27.928,33.785 27.571 C 34.257 27.179,34.351 25.029,33.908 24.755 C 33.748 24.656,33.478 24.060,33.308 23.431 C 33.139 22.801,32.540 21.684,31.978 20.948 C 31.416 20.212,30.910 19.309,30.853 18.943 C 30.796 18.576,30.616 18.315,30.453 18.363 C 30.290 18.411,30.081 18.045,29.991 17.550 C 29.835 16.703,29.804 16.686,29.473 17.250 M15.000 25.200 C 15.000 25.365,14.798 25.500,14.550 25.500 C 14.303 25.500,14.100 25.365,14.100 25.200 C 14.100 25.035,14.303 24.900,14.550 24.900 C 14.798 24.900,15.000 25.035,15.000 25.200 M20.545 26.303 L 20.314 27.150 20.107 26.400 C 19.848 25.459,20.062 24.742,20.478 25.158 C 20.651 25.331,20.679 25.813,20.545 26.303 M14.511 30.476 C 14.038 30.692,13.414 31.060,13.125 31.293 C 12.542 31.763,12.401 32.258,12.946 31.921 C 13.163 31.788,13.211 31.839,13.076 32.059 C 12.956 32.252,12.739 32.336,12.592 32.245 C 12.288 32.057,11.400 33.626,11.400 34.353 C 11.400 34.618,11.278 34.760,11.128 34.667 C 10.979 34.575,10.913 34.196,10.982 33.825 C 11.051 33.454,10.839 33.690,10.512 34.350 C 10.184 35.010,9.912 35.432,9.908 35.288 C 9.904 35.144,9.669 35.212,9.387 35.438 C 9.033 35.722,9.079 35.556,9.537 34.904 C 9.902 34.383,10.200 33.855,10.200 33.731 C 10.200 33.241,12.684 30.250,13.271 30.032 C 13.615 29.905,14.228 29.865,14.634 29.943 L 15.372 30.084 14.511 30.476 M31.800 31.800 C 31.800 31.965,31.657 32.100,31.482 32.100 C 31.308 32.100,31.248 31.965,31.350 31.800 C 31.452 31.635,31.595 31.500,31.668 31.500 C 31.740 31.500,31.800 31.635,31.800 31.800 M30.527 33.975 C 30.459 34.181,29.942 34.374,29.377 34.403 C 28.812 34.432,28.620 34.385,28.950 34.298 C 29.280 34.212,29.678 34.020,29.835 33.871 C 30.250 33.476,30.670 33.540,30.527 33.975 M8.204 38.263 C 8.106 38.518,7.962 38.662,7.883 38.583 C 7.804 38.504,7.829 38.296,7.938 38.120 C 8.233 37.641,8.406 37.734,8.204 38.263 M4.730 44.400 C 4.524 44.730,4.152 44.996,3.903 44.990 C 3.582 44.983,3.656 44.809,4.158 44.390 C 5.056 43.642,5.202 43.645,4.730 44.400 "  fill-rule="evenodd"/></svg>